<?xml version="1.0" encoding="UTF-8" standalone="no"?>
<!-- Created with Inkscape (http://www.inkscape.org/) -->

<svg
   width="210mm"
   height="210mm"
   viewBox="0 0 210 210"
   version="1.1"
   id="svg1"
   xml:space="preserve"
   xmlns="http://www.w3.org/2000/svg"
   xmlns:svg="http://www.w3.org/2000/svg"><defs
     id="defs1" /><g
     id="layer1"><path
       id="path3"
       style="fill:#00d400;stroke-width:0.685495"
       d="m 160.32613,15.64504 c -0.13934,-0.02624 -0.43176,0.638411 -0.88573,1.880505 -0.45039,1.232307 -3.81808,15.223692 -4.53306,18.832442 -0.4462,2.252081 -0.97351,6.363232 -1.24747,9.728606 -0.49686,6.103701 -0.99372,15.925203 -0.90382,17.867643 l 0.0506,1.088822 -1.45055,2.335258 c -0.99411,1.600966 -1.46786,2.255922 -1.50586,2.081527 -0.0305,-0.139935 0.10341,-1.177913 0.29714,-2.306319 0.48099,-2.801619 0.62163,-4.381902 1.14464,-12.830225 0.27827,-4.495227 0.43576,-9.706223 0.40876,-13.54956 -0.0241,-3.434881 -0.0487,-10.214915 -0.0527,-15.066264 -0.009,-9.158708 -0.029,-9.994517 -0.23565,-9.950297 -0.19364,0.04144 -1.41457,4.623127 -1.72237,6.463171 -0.44963,2.687811 -2.22854,18.211075 -2.41949,21.11344 -0.0968,1.471106 -0.17133,3.72344 -0.16433,5.005379 0.0267,5.488834 0.76328,20.955452 1.08003,22.678203 l 0.19276,1.049031 -0.99684,1.67225 h 3.72535 c 4.04162,-1.12868 12.22028,-3.596136 14.57896,-4.438489 6.23036,-2.225041 10.01993,-3.971977 19.12183,-8.815483 3.65325,-1.944048 11.52157,-6.610697 11.59257,-6.875549 0.0213,-0.07957 -0.83711,0.228717 -1.90738,0.685229 -4.54291,1.937686 -11.19286,4.334002 -17.27336,6.224427 -5.32141,1.65442 -8.26921,2.73769 -14.15004,5.199682 -4.6374,1.94144 -6.73882,2.956295 -11.05721,5.339209 -1.35451,0.747432 -2.52487,1.317466 -2.60087,1.267106 -0.076,-0.05041 0.41433,-0.92492 1.08934,-1.94355 0.675,-1.018634 1.54585,-2.424402 1.93528,-3.123841 l 0.70797,-1.271757 1.02371,-0.299723 c 1.34411,-0.393641 10.4654,-4.239394 13.69219,-5.772774 4.80479,-2.283242 9.87435,-5.250522 17.1235,-10.023678 2.08296,-1.371497 4.37476,-2.936582 5.09271,-3.477824 1.54396,-1.163961 3.65415,-2.997895 3.62355,-3.149161 -0.0119,-0.05864 -0.56245,0.192433 -1.2237,0.558105 -5.64118,3.119606 -9.58784,5.097626 -15.83314,7.93595 -7.7148,3.506176 -15.42738,7.697061 -19.87734,10.801408 -2.18359,1.523282 -2.57462,1.252063 -1.30224,-0.903304 0.64252,-1.08842 0.94961,-1.451697 1.6831,-1.989543 1.42282,-1.043311 3.45911,-3.022186 7.73648,-7.517887 5.42681,-5.703857 7.2447,-7.845136 10.59573,-12.480892 3.4539,-4.77807 6.45673,-9.555947 7.72304,-12.288656 1.13072,-2.44008 1.13194,-2.441256 -3.74912,2.954342 -0.9475,1.047359 -3.86836,4.055902 -6.49108,6.68538 -4.60196,4.613809 -4.81823,4.855293 -6.17895,6.91844 -1.36315,2.065684 -3.45306,4.864744 -3.49126,4.676201 -0.0287,-0.141858 2.85415,-5.990657 3.66748,-7.44089 0.42161,-0.751759 1.26879,-2.863023 2.03502,-5.071008 1.85993,-5.359665 3.41431,-9.641228 4.73666,-13.046749 0.62834,-1.618194 1.18558,-3.133631 1.23868,-3.367753 0.13289,-0.585916 -0.27655,-0.798327 -0.75034,-0.389123 -0.85832,0.741326 -4.56791,6.8309 -9.32501,15.307076 -1.28592,2.291243 -3.23267,6.778848 -4.54546,10.478947 -1.18507,3.340126 -3.77403,11.42149 -4.33875,13.542842 -0.47494,1.78408 -1.26114,3.468462 -1.35754,2.908867 -0.0221,-0.128395 0.20683,-1.494695 0.50901,-3.036508 0.30217,-1.541813 0.75142,-4.13374 0.99787,-5.759338 2.14958,-14.177754 2.09483,-13.745088 2.53473,-20.071126 0.18303,-2.631847 0.67556,-7.404349 1.09451,-10.605555 0.57708,-4.409474 0.76966,-6.372925 0.53743,-6.416662 z m -15.76906,2.442745 c -0.0839,0.0656 -0.41307,1.410364 -0.73122,2.987931 -0.6082,3.015805 -1.09213,7.088901 -1.4609,12.29434 -0.12151,1.715002 -0.39793,4.816028 -0.61391,6.891052 -0.68362,6.567499 -0.79813,12.032999 -0.42943,20.49384 0.15718,3.60717 0.50747,8.834607 0.83405,12.983704 h 2.73059 c 0.67277,-6.011644 0.86037,-9.404647 1.07383,-18.068665 0.202,-8.19887 0.13038,-12.60326 -0.293,-18.071248 -0.17058,-2.203071 -0.33571,-5.780751 -0.36691,-7.95042 -0.0894,-6.218113 -0.4475,-11.791544 -0.7431,-11.560534 z m -13.16922,2.503723 c -0.21116,0.04274 -0.67564,7.222388 -0.65164,10.070703 0.0102,1.203819 0.0972,2.926542 0.19327,3.82819 0.0961,0.901649 0.16933,2.321515 0.16433,3.15588 -0.0134,2.067081 0.37881,12.297777 0.59479,15.521016 0.0965,1.440667 0.28448,3.386128 0.41807,4.323251 0.41009,2.876707 1.66299,9.825883 2.867,16.248104 h 3.71399 c -0.48113,-7.241792 -1.25874,-15.821473 -2.06603,-22.087024 -0.31613,-2.453612 -1.32434,-8.284827 -2.50682,-14.501958 -0.48226,-2.535551 -1.13293,-6.592421 -1.44642,-9.014953 -0.70485,-5.446875 -1.06816,-7.586189 -1.28054,-7.543209 z m -8.8036,5.092712 c -0.0386,-0.02133 -0.0557,0.02259 -0.0625,0.125574 -0.038,0.571556 0.18316,2.440796 0.51005,4.311882 0.18924,1.08319 0.30171,2.82279 0.25011,3.865914 -0.14089,2.847552 -0.11146,4.291 0.25063,12.245764 0.36802,8.084824 0.54568,10.392336 1.11156,14.449247 0.21625,1.550415 1.3165,7.178469 2.51613,13.056051 h 4.82244 c -1.37708,-12.328 -2.00218,-16.198587 -4.09019,-25.334371 -0.90895,-3.976982 -1.96972,-8.671973 -2.35748,-10.433472 -0.38775,-1.761494 -0.93058,-3.896621 -1.20612,-4.744413 -0.27555,-0.847789 -0.68467,-2.741097 -0.90899,-4.207495 -0.22431,-1.466399 -0.51436,-2.847099 -0.64441,-3.068547 -0.0929,-0.158185 -0.15265,-0.244807 -0.1912,-0.266134 z m -8.76846,8.538497 c -0.0742,0.01501 -0.0865,0.771077 -0.0274,1.680001 0.0589,0.908922 0.11241,2.978885 0.12041,4.599719 0.008,1.764224 0.25778,4.769181 0.6227,7.486882 0.59304,4.416738 1.22283,10.066894 1.19063,10.681002 -0.0439,0.83844 -1.12065,-3.20887 -3.54759,-13.333037 -0.78481,-3.273868 -1.48421,-6.028086 -1.55391,-6.120556 -0.21202,-0.281525 -0.25222,0.286868 -0.17002,2.403471 0.0431,1.113244 0.0531,2.892007 0.0217,3.95273 -0.0559,1.888068 1.05339,15.218562 1.8526,22.25859 0.20893,1.840522 0.50573,3.809261 0.87695,5.907133 h 11.44891 c -1.95943,-9.254532 -2.56607,-11.575117 -4.54649,-17.435629 -0.60904,-1.80228 -1.60978,-5.239874 -2.22364,-7.639327 -2.35644,-9.210917 -3.84125,-14.486239 -4.06487,-14.440979 z M 99.707092,45.964119 c -0.02436,-0.0093 -0.04467,0.0025 -0.06253,0.02946 -0.05152,0.07767 0.07924,1.179432 0.290421,2.448429 0.211177,1.268994 0.453367,3.376947 0.538467,4.683952 0.0851,1.307007 0.44954,3.998754 0.80977,5.982064 0.81505,4.487305 1.4178,8.262746 2.15853,13.519071 0.059,0.418721 0.11925,0.725011 0.17673,1.111561 h 6.42028 c -0.92995,-2.629772 -1.97823,-5.333036 -3.16466,-8.130254 -2.14053,-5.046597 -3.15745,-7.816758 -5.31337,-14.471468 -1.30241,-4.020139 -1.683119,-5.107984 -1.85364,-5.172811 z m -6.945829,7.82898 c -0.126126,0.02552 0.369999,3.419131 0.878499,6.009969 0.191315,0.974778 0.51065,3.200969 0.710035,4.946985 0.172326,1.509077 0.854386,5.141423 1.64331,8.988599 h 4.287593 c -1.686644,-4.094948 -3.500802,-8.536775 -4.630724,-11.127487 -0.646973,-1.483391 -1.451564,-3.839336 -1.942001,-5.686474 -0.460543,-1.73453 -0.886662,-3.143762 -0.946712,-3.131592 z m 101.996877,7.697205 c -0.062,-0.03968 -0.63977,0.14021 -1.28364,0.399975 -2.83433,1.143506 -9.76984,3.553504 -16.0135,5.564518 -6.85535,2.208024 -11.49842,3.860297 -17.68729,6.283855 h 12.08402 c 2.53622,-1.153565 5.72472,-2.714583 10.81226,-5.251876 3.45081,-1.721026 7.17045,-3.709916 8.26564,-4.419886 1.09521,-0.709959 2.42858,-1.563846 2.96313,-1.897558 0.53455,-0.333712 0.92128,-0.639378 0.85938,-0.679028 z M 81.82653,63.087105 c -0.0976,-0.05747 -0.103043,0.164236 0.01705,0.718303 1.045433,4.823136 1.695304,7.637893 2.268596,9.933244 h 2.788977 C 86.329405,72.574447 85.796615,71.451801 85.329675,70.525928 84.21809,68.321844 83.13433,66.042627 82.921554,65.461121 82.406994,64.054871 81.989197,63.182888 81.82653,63.087105 Z m 113.02876,8.12767 c -0.33196,0.01459 -1.46934,0.328634 -4.2938,1.159619 -1.42369,0.418863 -3.27138,0.892203 -5.05963,1.364258 h 5.25756 c 0.38806,-0.210692 1.03107,-0.51734 1.32343,-0.690914 1.54595,-0.917814 2.83686,-1.708186 2.86856,-1.755966 0.0356,-0.05361 0.0145,-0.08186 -0.0961,-0.077 z M 73.617212,72.584717 c -0.02612,0.0053 0.274305,0.776168 0.402559,1.153935 h 0.288872 c -0.121069,-0.188733 -0.67958,-1.156346 -0.691431,-1.153935 z M 62.245296,128.02526 c 3.334795,3.97554 7.618589,8.67348 10.555428,11.42049 2.671959,2.49925 6.829752,5.62282 14.221871,10.6841 l 7.02076,4.80695 -5.374349,7.88065 c -2.955897,4.33446 -5.94298,8.64563 -6.638354,9.5803 l 2.06654,1.70067 c 1.43693,-2.15781 9.604569,-13.85521 9.678479,-13.86221 0.03351,-0.003 1.391556,1.01656 3.017387,2.26498 4.861722,3.73315 10.275562,6.88416 15.466242,9.00255 2.94527,1.20201 7.09507,2.34699 13.15423,3.62924 5.11242,1.0819 11.8419,2.90252 14.61772,3.9548 1.27067,0.48173 3.42879,1.40438 4.79609,2.05 1.3673,0.64567 2.59847,1.15243 2.73575,1.12603 0.38004,-0.0731 -4.13299,-2.78569 -5.83531,-3.50728 -1.51847,-0.64369 -4.53343,-2.37837 -11.34246,-6.52467 -2.25948,-1.37589 -5.15236,-3.04643 -6.42803,-3.71243 -6.19498,-3.23428 -14.48994,-6.39906 -23.12727,-8.82323 -5.999642,-1.68384 -6.072325,-1.75292 -4.367691,-4.17288 l 1.0604,-1.50481 0.932243,0.56327 c 4.281178,2.58585 13.591928,7.54398 18.817458,10.02058 4.4918,2.12886 9.78893,4.08514 15.99644,5.90713 3.39406,0.99623 11.04324,2.81221 12.12846,2.87941 1.60927,0.0996 4.54527,0.7474 8.06875,1.78077 1.95411,0.57309 3.76773,1.08683 4.03077,1.14153 0.85303,0.17698 0.0514,-0.25205 -3.06235,-1.63762 -1.61179,-0.71722 -4.14503,-1.90891 -5.62963,-2.64842 -7.62489,-3.79819 -9.61954,-4.81132 -12.04629,-6.12004 -8.20916,-4.42713 -19.7555,-8.77493 -32.27038,-12.1512 -2.41705,-0.65207 -4.592962,-1.31697 -4.834851,-1.47743 -0.662244,-0.43931 -0.52914,-0.86845 0.908991,-2.93212 l 1.27124,-1.82469 1.48983,0.70745 c 7.61521,3.61516 21.92925,9.49783 28.24634,11.60859 5.25817,1.75693 18.89535,4.42096 25.27236,4.93717 1.69583,0.13729 3.98077,0.52832 6.48487,1.10949 3.81576,0.88559 5.06775,1.114 4.71031,0.8599 -0.10052,-0.0715 -2.07785,-0.85557 -4.39405,-1.74253 -4.4391,-1.69991 -6.75158,-2.66642 -14.69936,-6.14381 -7.04634,-3.08299 -9.77586,-4.11201 -15.58303,-5.87406 -9.39103,-2.8495 -14.2811,-4.06803 -23.60683,-5.88388 -2.95747,-0.57587 -5.56901,-1.17425 -5.80326,-1.32964 -0.2664,-0.17671 -0.41201,-0.43127 -0.38861,-0.67902 0.0428,-0.45254 2.88968,-4.81615 3.24528,-4.97438 0.12761,-0.0568 1.98235,0.50342 4.12172,1.2454 19.41041,6.73191 29.4791,9.52002 38.79504,10.74147 1.87218,0.24548 3.66268,0.49962 3.97857,0.56482 1.73772,0.35854 14.74662,1.52597 17.74879,1.59267 1.93487,0.043 4.54799,0.16378 5.80688,0.26872 4.22628,0.35228 4.34397,0.23401 0.61598,-0.61754 -3.50545,-0.80071 -13.3073,-3.64507 -17.4904,-5.07566 -6.71838,-2.29761 -7.51797,-2.54534 -10.80348,-3.34553 -5.50239,-1.34012 -10.41702,-2.3849 -20.43182,-4.34444 -3.44238,-0.67356 -7.81554,-1.29681 -14.19139,-2.02261 -2.59314,-0.29519 -5.06378,-0.60935 -5.49062,-0.69815 -1.26852,-0.26385 -1.24298,-0.37267 0.82993,-3.49746 1.61952,-2.44135 1.82765,-2.69886 2.12235,-2.62516 6.24722,1.56105 21.56008,4.21349 31.28388,5.41879 5.16709,0.64047 10.3818,0.75149 20.2799,0.43304 2.81329,-0.0905 5.73157,-0.18125 6.48487,-0.20205 0.7533,-0.0208 2.99073,-0.21711 4.97231,-0.43615 1.98159,-0.21903 4.8014,-0.46827 6.26576,-0.55397 1.46438,-0.0857 2.65214,-0.20682 2.63964,-0.26872 -0.0125,-0.0619 -1.60734,-0.2825 -3.54397,-0.48989 -5.12969,-0.54931 -13.93215,-1.93237 -18.98644,-2.98328 -5.48254,-1.13993 -11.23818,-1.80001 -20.38015,-2.33733 -10.165,-0.59745 -15.54698,-0.70577 -22.71076,-0.45682 -2.26683,0.0788 -4.31396,0.12416 -4.54908,0.10026 -0.72609,-0.0739 -0.61481,-0.47416 0.70952,-2.50011 h -2.41226 c -0.98418,1.47567 -1.39988,2.00629 -1.53324,1.9141 -0.14437,-0.10004 -0.38219,-0.64068 -0.82578,-1.9141 h -2.94866 c 0.1238,0.21332 0.26931,0.49042 0.39119,0.69867 l 2.04018,3.4866 -1.30328,1.91462 c -0.71678,1.05326 -1.40818,1.98971 -1.53634,2.08101 -0.29071,0.20696 -0.73933,-0.67704 -1.95543,-3.85196 -0.42479,-1.10901 -1.1333,-2.80461 -1.75855,-4.32894 h -4.722193 c 2.141463,3.47868 4.168263,6.6952 5.547983,8.67751 l 1.37924,1.98179 -1.27847,1.73581 c -0.70327,0.95483 -1.34172,1.74863 -1.41852,1.76423 -0.2414,0.0488 -0.73668,-0.93202 -3.394625,-6.7231 -1.247746,-2.71855 -2.273892,-4.89356 -3.507796,-7.43624 H 89.4302 c 3.439956,5.08088 8.386703,12.2339 10.213847,14.67611 l 1.412833,1.88877 -0.80925,1.2144 c -1.10762,1.66355 -1.379255,1.8845 -1.777672,1.44745 -0.172962,-0.18974 -1.500871,-2.33878 -2.950724,-4.77593 -3.371494,-5.66739 -4.80402,-7.90263 -8.036719,-12.53825 -0.547583,-0.78523 -0.867356,-1.23034 -1.345137,-1.91255 h -8.356079 c 0.545255,0.83737 1.086484,1.66673 1.379761,2.06189 1.174375,1.58236 5.510901,6.63098 8.510591,9.90844 1.858714,2.03084 9.266543,9.60882 9.626286,9.84746 0.102999,0.0683 -1.55288,2.38025 -1.776119,2.47995 -0.203843,0.091 -0.672421,-0.33989 -2.295467,-2.1115 -1.994442,-2.17699 -17.632835,-16.91638 -20.377051,-19.20554 -0.354703,-0.29588 -2.697161,-1.91662 -4.191475,-2.9807 z" /><text
       xml:space="preserve"
       style="font-size:34.7344px;fill:#0055d4;stroke-width:0.180908"
       x="48.455334"
       y="102.01364"
       id="text1"><tspan
         style="font-style:normal;font-variant:normal;font-weight:bold;font-stretch:normal;font-family:'Delius Unicase';-inkscape-font-specification:'Delius Unicase,  Bold';fill:#0055d4;stroke-width:0.180908"
         x="48.455334"
         y="102.01364"
         id="tspan2">Sugong</tspan></text><text
       xml:space="preserve"
       style="font-style:normal;font-variant:normal;font-weight:bold;font-stretch:normal;font-size:30.1822px;font-family:'Delius Unicase';-inkscape-font-specification:'Delius Unicase,  Bold';fill:#ff0000;stroke-width:0.157199"
       x="48.276432"
       y="124.8648"
       id="text3"><tspan
         id="tspan3"
         style="fill:#ff0000;stroke-width:0.157199"
         x="48.276432"
         y="124.8648">Festival</tspan></text><path
       id="rect3"
       style="opacity:1;fill:#d4aa00;stroke-width:0.264583"
       d="m 27.75816,73.687622 h 18.188985 c -0.65038,13.188976 -1.275799,26.594268 0,56.475568 H 27.75816 c 1.513091,-18.82519 2.542789,-37.650379 0,-56.475568 z" /><path
       id="rect4"
       style="opacity:1;fill:#806600;stroke-width:0.234992"
       d="m 27.753645,73.693198 18.174373,1.76e-4 -0.08745,1.785306 -17.819276,0.02469 z" /><path
       id="rect5"
       style="opacity:1;fill:#806600;stroke-width:0.264583"
       d="m 27.905771,128.46305 17.949555,-0.0585 0.09129,1.72891 -18.135946,0.0758 z" /><rect
       style="opacity:1;fill:#806600;stroke-width:0.264583"
       id="rect6"
       width="2.8427205"
       height="7.8795714"
       x="21.312532"
       y="80.263161"
       rx="10"
       ry="7.8795714"
       transform="rotate(-4.2124798)" /><path
       style="opacity:1;fill:#806600;stroke-width:0.264583"
       d="m 27.586807,79.660691 c 0,0 -1.056832,-3.476876 -9.158841,-2.786932 -8.10201,0.689946 -10.4997504,17.071136 -10.4997504,17.071136 l 1.252716,1.834231 c 0,0 3.1462054,-15.495904 9.3831874,-14.78281 6.236982,0.713094 9.712888,4.101647 9.712888,4.101647 0,0 0.687647,-2.296755 0.687647,-3.562281 0,-1.265524 -1.377847,-1.874991 -1.377847,-1.874991 z"
       id="path6" /></g></svg>
